<svg xmlns="http://www.w3.org/2000/svg" xml:space="preserve" width="800" height="800" viewBox="0 0 512.003 512.003"><path d="M497.569 255.999c0 101.019-62.002 187.557-150.034 223.616-28.226 11.566-59.132 17.949-91.531 17.949s-63.305-6.383-91.531-17.949C76.44 443.556 14.438 357.018 14.438 255.999S76.44 68.442 164.472 32.383c28.227-11.566 59.132-17.949 91.531-17.949s63.305 6.383 91.531 17.949c88.032 36.059 150.035 122.599 150.035 223.616z" style="fill:#4285f4"/><circle cx="256.007" cy="256.004" r="87.842" style="fill:#a2a8d3"/><path d="M171.676 280.588 33.16 349.398c11.781 28.138 29.121 54.505 52.031 77.415 22.91 22.908 49.277 40.25 77.415 52.031l68.81-138.516c-28.737-8.366-51.376-31.003-59.74-59.74zM340.333 231.415l138.514-68.813c-11.781-28.138-29.121-54.505-52.031-77.415-22.91-22.908-49.277-40.25-77.415-52.031L280.588 171.67c28.739 8.365 51.379 31.005 59.745 59.745z" style="fill:#ffdc64"/><circle cx="256.007" cy="256.004" r="29.281" style="fill:#767b95"/><path d="M256.003 299.716c-24.105 0-43.715-19.61-43.715-43.715s19.61-43.715 43.715-43.715 43.715 19.61 43.715 43.715-19.609 43.715-43.715 43.715zm0-58.564c-8.187 0-14.847 6.66-14.847 14.847s6.66 14.847 14.847 14.847 14.847-6.66 14.847-14.847-6.66-14.847-14.847-14.847zM388.205 138.233a14.58 14.58 0 0 1-2.829-.274 14.917 14.917 0 0 1-2.699-.823 14.655 14.655 0 0 1-4.691-3.132 14.645 14.645 0 0 1-3.118-4.678 14.255 14.255 0 0 1-1.095-5.527c0-.938.087-1.878.274-2.815.188-.925.46-1.835.821-2.699.361-.867.81-1.718 1.328-2.497a14.645 14.645 0 0 1 1.79-2.194 14.649 14.649 0 0 1 2.208-1.79c.779-.52 1.617-.967 2.483-1.328.88-.361 1.775-.635 2.699-.823 4.706-.951 9.685.592 13.034 3.941.664.664 1.27 1.4 1.788 2.194.52.779.967 1.631 1.328 2.497.361.866.635 1.774.823 2.699.188.937.289 1.876.289 2.815 0 .951-.101 1.891-.289 2.829a14.883 14.883 0 0 1-.823 2.698 14.588 14.588 0 0 1-1.328 2.484 13.709 13.709 0 0 1-1.788 2.194c-2.685 2.697-6.409 4.229-10.205 4.229z"/><path d="M487.207 145.946c-.065-.137-.128-.276-.195-.413a250.08 250.08 0 0 0-2.48-5.04c-.427-.847-.872-1.686-1.309-2.527-.346-.664-.69-1.329-1.041-1.992a276.701 276.701 0 0 0-2.229-4.099 253.742 253.742 0 0 0-23.437-35.052c-.198-.25-.398-.495-.598-.743a255.259 255.259 0 0 0-4.69-5.678c-.432-.51-.856-1.023-1.292-1.53a264.178 264.178 0 0 0-4.63-5.209 266.863 266.863 0 0 0-3.24-3.483c-.505-.534-1.016-1.065-1.526-1.595a255.064 255.064 0 0 0-12.314-11.995c-.235-.214-.472-.426-.709-.641a257.5 257.5 0 0 0-8.786-7.6c-.082-.068-.163-.139-.245-.206a262.447 262.447 0 0 0-3.727-2.997 268.525 268.525 0 0 0-2.812-2.193c-1.031-.792-2.057-1.594-3.099-2.37a254.849 254.849 0 0 0-5.863-4.238c-.707-.495-1.419-.982-2.13-1.471a261.045 261.045 0 0 0-5.587-3.736c-.393-.254-.779-.515-1.172-.766a249.284 249.284 0 0 0-7.232-4.462c-.32-.191-.642-.377-.963-.566a251.87 251.87 0 0 0-7.334-4.164l-.251-.14a258.096 258.096 0 0 0-7.885-4.105c-.293-.146-.587-.289-.88-.433a257.631 257.631 0 0 0-7.449-3.539c-.218-.098-.434-.202-.652-.3a258.435 258.435 0 0 0-6.468-2.823c-.167-.071-.338-.12-.507-.183-.491-.205-.971-.429-1.464-.631C322.193 6.403 289.558 0 256.003 0s-66.189 6.403-97.002 19.027c-46.459 19.03-86.042 51.071-114.476 92.658C15.398 154.292.003 204.195.003 255.999c0 38.471 8.497 75.89 24.796 110.054.065.137.128.276.195.413a244.857 244.857 0 0 0 2.48 5.04c.427.847.872 1.686 1.309 2.527.346.664.69 1.329 1.041 1.992a276.701 276.701 0 0 0 1.904 3.513l.325.586a253.742 253.742 0 0 0 23.437 35.052c.198.25.398.495.598.743a255.259 255.259 0 0 0 4.69 5.678c.432.51.856 1.023 1.292 1.53a264.178 264.178 0 0 0 4.63 5.209 266.863 266.863 0 0 0 3.24 3.483c.505.534 1.016 1.065 1.526 1.595a255.064 255.064 0 0 0 12.314 11.995c.235.214.472.426.709.641a257.5 257.5 0 0 0 8.786 7.6c.082.068.163.139.245.206a282.644 282.644 0 0 0 6.539 5.189c1.031.792 2.057 1.594 3.099 2.37a254.849 254.849 0 0 0 5.863 4.238c.707.495 1.419.982 2.13 1.471 1.848 1.27 3.71 2.516 5.587 3.736.393.254.779.515 1.172.766a250.596 250.596 0 0 0 7.231 4.462c.32.191.642.377.963.566a251.87 251.87 0 0 0 7.334 4.164l.251.14a258.096 258.096 0 0 0 7.885 4.105c.293.146.587.289.88.433a257.631 257.631 0 0 0 7.449 3.539c.218.098.434.202.652.3 2.142.967 4.296 1.913 6.468 2.823.163.068.331.117.495.179.495.206.979.433 1.475.635 30.814 12.626 63.45 19.029 97.003 19.029S322.188 505.6 353 492.976c46.459-19.03 86.042-51.071 114.476-92.658 29.128-42.607 44.523-92.51 44.523-144.314.005-38.475-8.493-75.894-24.792-110.058zM155.889 459.919c-.375-.183-.759-.355-1.133-.541-.407-.202-.813-.408-1.217-.612a231.139 231.139 0 0 1-6.249-3.271c-.668-.364-1.331-.739-1.996-1.111a234.274 234.274 0 0 1-10.089-5.973c-14.324-9.008-27.638-19.636-39.806-31.804-17.838-17.838-32.377-38.136-43.336-60.479l111.89-55.584a102.517 102.517 0 0 0 10.28 16.816l-29.576 29.576c-5.637 5.637-5.637 14.776 0 20.414a14.393 14.393 0 0 0 10.206 4.228c3.694 0 7.387-1.41 10.206-4.228l29.576-29.576a102.474 102.474 0 0 0 16.816 10.28l-55.572 111.865zm79.303-133.533a71.962 71.962 0 0 1-8.404-3.057l-.152-.069a73.147 73.147 0 0 1-4.119-1.966c-13.581-7.022-24.785-18.225-31.807-31.807-.025-.046-.048-.094-.072-.141a72.408 72.408 0 0 1-1.894-3.978l-.069-.152a71.83 71.83 0 0 1-3.057-8.404 73.136 73.136 0 0 1-3.023-20.811c0-40.478 32.93-73.408 73.408-73.408a73.11 73.11 0 0 1 20.823 3.027 71.63 71.63 0 0 1 8.378 3.047c.064.029.126.059.191.087a72.387 72.387 0 0 1 3.938 1.875l.166.087c13.58 7.022 24.781 18.226 31.8 31.807l.068.131a73.205 73.205 0 0 1 1.904 4l.059.13a71.485 71.485 0 0 1 3.066 8.43 73.143 73.143 0 0 1 3.017 20.789c0 40.478-32.93 73.408-73.408 73.408a73.257 73.257 0 0 1-20.813-3.025zm102.583-131.745 29.576-29.576c5.637-5.637 5.637-14.776 0-20.414-5.638-5.635-14.775-5.635-20.414 0l-29.576 29.576a102.378 102.378 0 0 0-16.817-10.281L356.118 52.08c.375.183.759.355 1.133.541.407.202.813.408 1.217.612a230.966 230.966 0 0 1 6.247 3.269c.671.365 1.335.742 2.002 1.113 1.332.742 2.65 1.501 3.965 2.268a223.306 223.306 0 0 1 6.111 3.699c14.329 9.01 27.644 19.641 39.815 31.811 17.838 17.838 32.377 38.136 43.336 60.479l-111.889 55.586a102.362 102.362 0 0 0-10.28-16.817zM169.944 45.739c27.324-11.194 56.279-16.871 86.059-16.871 25.218 0 49.84 4.086 73.385 12.132l-56.689 114.109a102.571 102.571 0 0 0-16.696-1.384c-56.396 0-102.276 45.88-102.276 102.276 0 5.687.488 11.262 1.386 16.699L40.959 329.407c-7.869-23.188-12.087-47.911-12.087-73.408 0-92.623 55.373-175.156 141.072-210.26zM342.062 466.26c-27.324 11.195-56.277 16.871-86.059 16.871-25.219 0-49.84-4.086-73.385-12.132l56.686-114.109a102.385 102.385 0 0 0 16.699 1.386c56.396 0 102.276-45.88 102.276-102.276 0-5.687-.488-11.26-1.384-16.696l114.154-56.71c7.868 23.188 12.087 47.91 12.087 73.406-.001 92.624-55.374 175.157-141.074 210.26z"/><path d="M123.802 402.636c-.938 0-1.892-.101-2.815-.289a14.516 14.516 0 0 1-2.699-.823 14.231 14.231 0 0 1-2.497-1.328 13.709 13.709 0 0 1-2.194-1.788 13.882 13.882 0 0 1-1.79-2.195 14.709 14.709 0 0 1-2.151-5.195 14.213 14.213 0 0 1-.287-2.815c0-.938.1-1.892.287-2.829.189-.909.462-1.819.823-2.699.361-.866.81-1.703 1.328-2.483a13.793 13.793 0 0 1 1.79-2.195c.664-.678 1.4-1.27 2.194-1.804a14.638 14.638 0 0 1 5.196-2.151c4.677-.937 9.671.592 13.02 3.955.664.664 1.27 1.4 1.804 2.195.52.779.967 1.617 1.328 2.483.361.88.635 1.79.823 2.699.188.937.274 1.891.274 2.829 0 .937-.088 1.891-.274 2.815a14.585 14.585 0 0 1-.823 2.699 14.294 14.294 0 0 1-1.328 2.496 14.74 14.74 0 0 1-1.804 2.195c-.664.664-1.4 1.27-2.194 1.788-.779.52-1.617.967-2.483 1.328-.88.361-1.79.635-2.699.823-.939.188-1.892.289-2.829.289z"/></svg>